<svg width="46" height="35" viewBox="0 0 46 35" fill="none" xmlns="http://www.w3.org/2000/svg">
<path fill-rule="evenodd" clip-rule="evenodd" d="M39.3638 9.65376C42.9182 9.65376 45.7997 7.49269 45.7997 4.82688C45.7997 2.16107 42.9182 0 39.3638 0C35.8094 0 32.928 2.16107 32.928 4.82688C32.928 7.49269 35.8094 9.65376 39.3638 9.65376Z" fill="#8D8BA7"/>
<path fill-rule="evenodd" clip-rule="evenodd" d="M39.3635 21.7766C42.9179 21.7766 45.7993 19.6156 45.7993 16.9499C45.7993 14.2842 42.9179 12.1232 39.3635 12.1232C35.8091 12.1232 32.9277 14.2842 32.9277 16.9499C32.9277 19.6156 35.8091 21.7766 39.3635 21.7766Z" fill="#8D8BA7"/>
<path fill-rule="evenodd" clip-rule="evenodd" d="M39.3635 34.3493C42.9179 34.3493 45.7993 32.1882 45.7993 29.5224C45.7993 26.8566 42.9179 24.6956 39.3635 24.6956C35.8091 24.6956 32.9277 26.8566 32.9277 29.5224C32.9277 32.1882 35.8091 34.3493 39.3635 34.3493Z" fill="#8D8BA7"/>
<path fill-rule="evenodd" clip-rule="evenodd" d="M22.6008 21.7768C26.1551 21.7768 29.0364 19.6158 29.0364 16.95C29.0364 14.2843 26.1551 12.1233 22.6008 12.1233C19.0465 12.1233 16.1652 14.2843 16.1652 16.95C16.1652 19.6158 19.0465 21.7768 22.6008 21.7768Z" fill="#8D8BA7"/>
<path fill-rule="evenodd" clip-rule="evenodd" d="M22.6006 34.3493C26.1549 34.3493 29.0362 32.1882 29.0362 29.5224C29.0362 26.8566 26.1549 24.6956 22.6006 24.6956C19.0463 24.6956 16.1649 26.8566 16.1649 29.5224C16.1649 32.1882 19.0463 34.3493 22.6006 34.3493Z" fill="#8D8BA7"/>
<path fill-rule="evenodd" clip-rule="evenodd" d="M6.43578 34.3493C9.99019 34.3493 12.8716 32.1882 12.8716 29.5224C12.8716 26.8566 9.99019 24.6956 6.43578 24.6956C2.88136 24.6956 -6.10352e-05 26.8566 -6.10352e-05 29.5224C-6.10352e-05 32.1882 2.88136 34.3493 6.43578 34.3493Z" fill="#8D8BA7"/>
</svg>
